<?xml version="1.0" encoding="UTF-8"?>
<svg id="Capa_1" data-name="Capa 1" xmlns="http://www.w3.org/2000/svg" viewBox="0 0 1080.82 1080.82">
  <defs>
    <style>
      .cls-1 {
        fill: #fff;
      }

      .cls-2 {
        fill: #361214;
      }

      .cls-3 {
        fill: #f05b22;
      }
    </style>
  </defs>
  <rect class="cls-1" width="1080.82" height="1080.82"/>
  <g>
    <path class="cls-3" d="M406.18,606.9c2.75,2.32,5.75,4.37,9.03,6.1,5.74,3.03,11.46,6.06,17.34,8.81,3.87,1.81,7.78,3.55,11.81,4.97,3.5,1.24,7.24,3.99,10.81,1.32,4.66-3.49-.12-13.41-1.81-17.33-2.38-5.52-5.72-10.86-7.31-16.68-4.06-14.9-4.33-30.69-2.28-45.87,2.71-18.41,9.1-38.75,23.16-52.05,3.11-2.45,7.12-7.1,10.14-4.47,2.17,4.84-1.39,15.68-.63,21.89-.33,10.96,6.68,24.45,19.12,21.11,11.3-3.89,16.04-17.01,19.86-27.37,9.03-27.17.87-57.2,10.66-84.4,3.23-8.45,7.42-19.01,14.92-24.33,3.96-1.59,3.52,5.1,3.46,7.98-1.77,22.31,11.44,39.87,24.6,56.31,9.78,13.97,15.74,28.85,17.4,45.37,1.68,10.42-1.58,21.91.35,32.35,1.96,9.27,12.95,12.61,19.04,4.85,3.23-3.96,4.78-9.08,5.79-14.01,2.03-9.72,1.55-19.7.79-29.56.15-1.3-.59-4.13.88-4.17,14.13,12.9,23.53,32.41,27.82,51.13,4.21,19.21.76,38.99-8.36,55.51-2.05,3.72-4.57,7.2-6.72,10.86-2.42,4.13-8.01,11.92-6.71,16.95,1.69,6.56,10.17-.24,13.37-1.87,4.23-2.16,8.31-4.62,12.57-6.73,6.28-3.11,12.45-6.21,18.74-9.23,10.21-4.13,18.8-8.43,24.03-18.28,22.16-34.67,26.15-77.73,21.58-117.82-.4-3.24-.92-8.37-3-10.55-3.81-2.59-8.49,7.31-11.65,9.72-5.84,5.98-4.29-1.93-3.43-5.88,7.21-35.8.03-67.58-25.28-92.85-2.5-2.27-4.72-3.37-5.23.37,0,18.86,1.9,39.96-9.11,56.34-4.39,7.56-14.67,12.7-22.17,6.36-8.76-7.95-5.95-22.05-4.29-32.54,6.42-31.3,7.33-63.97-7.3-93.33-2.8-5.71-5.4-7.64-6.48.15-1.17,7.33-2.72,14.37-5.88,21.09-2.39,5.34-5.14,7.83-5.71-.03-1.98-27.07-8.58-51.52-22.53-73.7-13.64-21.69-30.48-40.08-52.95-54.34-1.73-1.22-5.22-3.07-6.5-2.46-1.28.51-.96,2.88.04,6.04,2.79,8.39,5.41,17.48,6.83,26.48,9.69,56.41-19.51,94.06-45.77,139.74-8.21,15.71-14.43,32.46-16.71,50.13-1.84,5.65,2.01,29.37-9.46,19.12-11.11-11.65-6.68-29.01-5.94-43.44.48-14.83-3.24-29.69-12.29-40.86-2.8-2.95-7.23-8.86-11.42-8.17-2.03,1.24-1.65,4.71-1.65,6.99.4,8.57.05,16.36-2.03,24.59-2.33,9.43-6.53,18.25-11.12,26.76-24.04,40.76-41.8,86.36-31.26,134.64,4.74,20.57,12.2,44.26,28.85,58.28Z"/>
    <g>
      <path class="cls-2" d="M464.58,855.78c7.59-11.07,16.58-21.22,23.85-34.81.96-1.79-.76-3.83-2.69-3.23-9.14,2.82-16.43,7.32-23.86,10.71-2.58,1.18-5.42-1.15-4.77-3.91,10.25-43.38,39.24-73.33,71.09-104.12,3.94-3.81,10.47-.37,9.57,5.04-1.85,11.16-5.14,20.68-8.74,30.06-3.34,8.72-2.85,14.01,7.51,16.43,8.42,1.95,10.06,7.8,5.95,15.31-3.98,7.3-8.06,14.57-11.8,22.01-1.97,3.89-5.51,7.54-2.71,14.09,13.54-9.43,26.6-18.81,40.01-27.65,3.79-2.48,7.22-10.59,13.19-3.84,5.43,6.17,5.08,13.04-1.74,18.57-7.61,6.19-7.43,13.93-5.77,22.68,1.55,8.11,4.26,6.48,8.45,2.22,4.4-4.45,8.96-8.71,13.33-13.19,6.48-6.63,12.48-6.38,19.31-.05,4.71,4.35,10.46,13.27,15.44,10.29,5.69-3.42.42-12.78.21-19.59-.12-3.67-1.25-7.5-.14-11.71.7-2.66,4.18-3.33,5.88-1.18,12.53,15.88,34.35,43.61,43.31,55,1.63,2.08.15,5.11-2.49,5.11h-210.17c-2.2,0-3.49-2.47-2.23-4.27h0Z"/>
      <path class="cls-2" d="M951.48,860.25c-38.67-36.78-81.26-69.54-119.68-106.81-6.16-5.95-12.03-3.76-17.75,1.02-8.66,7.19-17.46,14.22-26.07,21.46-3.51,2.95-6.21,5.11-9.82-.32-6.74-10.16-17.67-14.91-28.13-20.1-18.96-9.38-37.96-18.65-57.76-28.36,8.12-7.95,17.46-10.53,25.99-14.49,16.07-7.48,20.12-13.49,18.51-31.08-1.58-17.15-8.5-32.11-21.04-44.16-11.8-11.35-21.49-12.95-36.32-5.76-19.09,9.27-38.19,18.54-56.94,28.49-8.95,4.74-15.36,4.32-22.76-3.3-14.22-14.67-29.37-28.42-44.33-42.35-10.98-10.24-15.61-10.53-26.71-.42-15.41,14.04-30.66,28.31-45.15,43.27-6.55,6.75-11.59,8.24-20.22,3.58-19.38-10.48-39.35-19.86-59.21-29.45-14.75-7.13-26.07-5.55-37.64,5.87-12.95,12.74-20.2,28.24-20.81,46.73-.44,13.15,4.38,22.13,16.94,27.47,9.29,3.95,19.38,6.87,27.86,15.11-20.28,10.14-39.51,19.97-58.95,29.42-10.88,5.29-20.15,17.38-30.5,17.88-11.49.55-19.6-13.86-29.66-21.13-12.11-8.75-27.61,7.84-36.7,14.67-17.17,12.91-33.94,26.38-50.08,40.57-15.63,13.74-29.53,29.43-45.25,42.98-2.02,1.74-8.76,9.24-11.3,9.24h42.41c5.11-4.3,9.12-9.29,13.62-14.43,6.13-6.98,13.49-13.19,20.36-19.41,14.17-12.83,28.87-25.07,43.17-37.74,1.4-1.25,2.74-2.63,4.12-3.9,3.12-2.89,8.19-.93,8.73,3.29,2.52,19.33-10.9,30.81-23.44,43.56-3.52,3.58.23,9.52,4.96,7.81,6.83-2.47,12.82-5.63,19.23-7.45,2.31-.66,4.8-2.97,6.88-.81,2.69,2.81-.1,5.29-1.58,7.64-5.03,7.17-9.48,14.17-13.93,21.44h19.94c7.03-4.19,15.02-6.96,22.71-10.51,8.95-4.09,14.12-3.42,21.28,3.76,2.56,2.56,5.21,4.82,7.93,6.75,16.15,11.54,34.37,11.83,48.12,0,1.89-1.61,3.69-3.47,5.38-5.55,29.58-36.16,63.23-68.79,91.13-106.35,2.19-2.95,4.87-7.35,7.72-7.69,12.46-1.43,18.01-11.22,25.12-19.12,9.48-10.53,18.44-21.55,28.05-31.98,11.24-12.19,13.69-11.9,24.21.6,17.72,21.07,35.45,42.12,53.36,63.02,3.69,4.32,7.58,10.38,14.25,8.11,9.14-3.11,13.04,2.61,17.41,8.22,20.44,26.36,40.56,52.97,61.32,79.07,3.8,4.77,7.38,8.64,10.93,11.67,12.28,10.48,24.26,10.96,43.9,3.79,6.37-2.32,12.49-3.51,18.91-3.79,1.79-.06,3.59-.06,5.43,0h68.74c-14.56-13.22-28.1-25.76-41.96-37.95-23.84-20.94-21.23-17.39.85-34.9,4.16-3.3,9.03-10.11,13.14-8.14,5.5,2.63,3.92,10.83,4.48,16.86,1.37,14.98,18.38,33.13,34.58,38.61,3.29,1.1,6.29-2.26,4.74-5.35-1.89-3.77-3.98-7.77-3.22-13.46,10.22,8.32,21.04,15.91,31.05,24.47,7.58,6.46,14.27,13.49,21.81,19.86,0,0,37.63,0,37.63,0ZM374.9,655.85c3.05-4.16,6.66-4.11,10.87-1.63,13.16,7.79,26.37,15.44,39.56,23.13l-1.17,3.11c-17.05-3.13-32.01-12.09-47.89-18.49-2.72-1.1-3.22-3.59-1.37-6.13ZM359.15,847.85c-9.8,4.97-18.57,1.92-26.78-3.9-14.56-10.33-23.07-31.92-19.18-48.25,4.51-19.01,20.94-25.87,37.03-14.85,14.64,10.03,21.88,24.54,22.55,41.24-.23,11.66-3.5,20.63-13.62,25.76ZM388.57,814.94c-4.79-6.37-3.27-12.2,5.8-16.96,6.86-3.6,13.5-7.62,20.15-11.62,1.11,1.48.74.97,1.85,2.45-9.29,8.73-18.57,17.44-27.81,26.13ZM403.64,765.02c-8.22,4.92-16.52,9.66-24.75,14.56-5.3,3.16-7.42-.76-9.9-4.18-2.45-3.4-.73-5.27,2.35-6.61,18.8-8.2,37.62-16.39,56.44-24.58,2.22-.96,4.06,1.94,2.25,3.55-7.99,7.09-17.4,11.88-26.4,17.26ZM369.66,696.21c-3.79-1.4-7.79-3.48-8.04-8.58-.21-4.03-.4-8,5.8-5.79,23.9,8.46,47.52,17.5,69.86,29.36,2.73,1.45,1.22,5.65-1.81,5.02-22.6-4.74-44.29-12.12-65.82-20.02ZM698.17,654.3c7.5-4.69,10.32.05,14.07,6.58-17.43,7.17-34.07,15.38-52.04,20.02l-1.3-3.18c13.11-7.79,26.34-15.35,39.27-23.42ZM644.33,716.4c-2.58.54-3.89-2.96-1.59-4.25,14.99-8.41,31.13-14.51,47.34-20.46,7.38-2.71,14.69-5.64,22.1-8.21,2.95-1.02,6.92-3.5,9,.19,2.18,3.89.44,8.19-2.95,11.14-1.5,1.29-3.61,2.03-5.58,2.64-22.52,6.99-45,14.1-68.33,18.94ZM695.88,819.33c-9.3-8.87-17.78-16.94-27.47-26.2,19.97,2.27,30.76,12.59,27.47,26.2ZM705.02,784.22c-22.86-13.78-46.8-25.95-67.22-43.32,25.97,7.4,49.48,19.39,73.22,30.84,3.11,1.5,4.92,3.59,2.05,6.63-2.31,2.45-3.66,8.5-8.04,5.85ZM710.89,822.23c.98-15.07,6.66-27.29,17.01-37.08,8.37-7.92,18.49-12.04,29.6-7.03,11.32,5.11,14.15,15.93,13.62,27.2-.69,14.25-6.85,26.55-17.25,36.21-7.95,7.38-17.35,11.53-28.42,6.51-11.48-5.21-14.56-15.04-14.56-25.81Z"/>
      <path class="cls-2" d="M336.14,788.93c-10.67.6-11.57,9.3-11.83,17.3-.47,14.33,11.22,29.82,22.71,30.18,10.37.32,12.83-7.24,14.12-14.8.29-13.96-14.38-33.27-25-32.68ZM346.96,824.78c-8.35-1.95-11.43-8.88-12.7-16.56-.53-3.14-.45-8.35,3.89-7.37,8.85,2.02,10.29,10.88,13.4,17.22-.08,3.9-1.14,7.5-4.58,6.71Z"/>
      <path class="cls-2" d="M759.09,801.84c-1.34-11.59-9.77-15.62-19.59-9.62-10.69,6.51-15.57,16.75-17.07,28.82,1.05,5.82,1.92,11.64,7.82,14.8,6.17,3.32,11.43.52,15.91-3.26,9.46-7.95,14.36-18.33,12.93-30.74ZM749.3,808c-2.35,6.55-4.24,14.7-13.09,17.04-4.01,1.06-4.79-2.98-4.08-5.77,1.97-7.75,5.22-15.11,13.75-17.46,2.64-.73,3.77,2.55,3.42,6.19Z"/>
    </g>
  </g>
</svg>